<?xml version="1.0" encoding="UTF-8"?>
<svg version="1.1" xmlns="http://www.w3.org/2000/svg" width="48" height="48">
<path d="M0 0 C5.09348409 3.06267686 9.67762132 7.84536396 11.5625 13.5 C12.18903527 21.8497873 11.86738987 27.53413215 6.375 34.125 C0.06248315 39.45556978 -5.38403955 41.09435427 -13.5625 40.6875 C-18.68383768 40.51222884 -23.38099068 40.44184869 -28.4375 41.5 C-28.169375 40.613125 -27.90125 39.72625 -27.625 38.8125 C-27.563125 37.719375 -27.50125 36.62625 -27.4375 35.5 C-29.72901077 32.87505218 -29.72901077 32.87505218 -32.4375 30.5 C-35.59423512 24.22947855 -35.43867008 16.81637587 -33.4375 10.1875 C-25.51901469 -0.45296464 -12.90980095 -5.72081376 0 0 Z " fill="#FE6306" transform="translate(35.4375,4.5)"/>
<path d="M0 0 C1.32 0.66 2.64 1.32 4 2 C4 3.98 4 5.96 4 8 C5.32 8.33 6.64 8.66 8 9 C8 9.66 8 10.32 8 11 C7.01 11 6.02 11 5 11 C5 12.98 5 14.96 5 17 C5.66 16.34 6.32 15.68 7 15 C8.98356483 14.28591666 10.98315437 13.61382258 13 13 C13.33 11.02 13.66 9.04 14 7 C14.99 7 15.98 7 17 7 C17.061875 7.61875 17.12375 8.2375 17.1875 8.875 C17.828919 11.27761141 17.828919 11.27761141 20.5625 12.25 C21.366875 12.4975 22.17125 12.745 23 13 C23 13.66 23 14.32 23 15 C22.05125 15.391875 21.1025 15.78375 20.125 16.1875 C16.65872662 18.19793856 16.0197307 19.22699642 15 23 C17.64 23 20.28 23 23 23 C22.67 24.32 22.34 25.64 22 27 C15.6 29.21538462 15.6 29.21538462 12.5625 28.125 C12.046875 27.75375 11.53125 27.3825 11 27 C11.33 24.36 11.66 21.72 12 19 C10.02 18.67 8.04 18.34 6 18 C3.75059006 24.36672655 3.75059006 24.36672655 3 31 C1.68 30.67 0.36 30.34 -1 30 C-1 29.34 -1 28.68 -1 28 C-2.98 28 -4.96 28 -7 28 C-5.53967505 22.68972746 -3.01679014 18.53669968 0 14 C-1.2375 14.7425 -1.2375 14.7425 -2.5 15.5 C-6.75488188 17.32352081 -9.42308671 17.23673689 -14 17 C-11.60569917 14.28857323 -9.12660605 12.92022387 -5.875 11.375 C-2.7170292 10.01068523 -2.7170292 10.01068523 0 8 C0.07148199 6.64756083 0.08399454 5.29165633 0.0625 3.9375 C0.041875 2.638125 0.02125 1.33875 0 0 Z " fill="#FEF3EC" transform="translate(18,6)"/>
</svg>
